# https://github.com/mikedh/trimesh
v 0.15736418 0.07928114 0.00000000
v 0.11476968 0.07928114 0.00000000
v 0.11476968 0.10072299 0.00000000
v 0.18318529 0.10072299 0.00000000
v 0.18318529 0.01793018 0.00000000
v 0.17544929 0.01290539 0.00000000
v 0.15879983 0.00480789 0.00000000
v 0.14988639 0.00173518 0.00000000
v 0.14064243 -0.00066877 0.00000000
v 0.12122495 -0.00341613 0.00000000
v 0.11105144 -0.00375955 0.00000000
v 0.10005939 -0.00334706 0.00000000
v 0.07991892 -0.00004712 0.00000000
v 0.06223662 0.00655275 0.00000000
v 0.04701250 0.01645257 0.00000000
v 0.04032225 0.02263995 0.00000000
v 0.03434789 0.02957292 0.00000000
v 0.02478891 0.04537544 0.00000000
v 0.01841626 0.06376007 0.00000000
v 0.01522994 0.08472681 0.00000000
v 0.01483165 0.09617848 0.00000000
v 0.01522994 0.10766822 0.00000000
v 0.01841626 0.12869177 0.00000000
v 0.02478891 0.14710739 0.00000000
v 0.03434789 0.16291507 0.00000000
v 0.04032225 0.16984094 0.00000000
v 0.04701250 0.17602833 0.00000000
v 0.06223662 0.18592814 0.00000000
v 0.07991892 0.19252802 0.00000000
v 0.10005939 0.19582795 0.00000000
v 0.11105144 0.19624045 0.00000000
v 0.12035478 0.19594867 0.00000000
v 0.13826430 0.19361444 0.00000000
v 0.14687048 0.19157199 0.00000000
v 0.15519521 0.18898213 0.00000000
v 0.17085313 0.18214470 0.00000000
v 0.17818633 0.17789713 0.00000000
v 0.17818633 0.15013427 0.00000000
v 0.17084280 0.15588980 0.00000000
v 0.15547408 0.16512342 0.00000000
v 0.14744887 0.16860153 0.00000000
v 0.13920678 0.17131275 0.00000000
v 0.12210287 0.17441128 0.00000000
v 0.11324107 0.17479860 0.00000000
v 0.10466523 0.17449003 0.00000000
v 0.08916740 0.17202153 0.00000000
v 0.07587469 0.16708454 0.00000000
v 0.06478710 0.15967904 0.00000000
v 0.06007023 0.15505061 0.00000000
v 0.05591626 0.14981086 0.00000000
v 0.04926991 0.13751485 0.00000000
v 0.04483901 0.12279681 0.00000000
v 0.04262355 0.10565676 0.00000000
v 0.04234662 0.09617848 0.00000000
v 0.04262355 0.08672924 0.00000000
v 0.04483901 0.06963566 0.00000000
v 0.04926991 0.05494862 0.00000000
v 0.05591626 0.04266810 0.00000000
v 0.06007023 0.03743028 0.00000000
v 0.06478710 0.03280185 0.00000000
v 0.07587469 0.02539635 0.00000000
v 0.08916740 0.02045936 0.00000000
v 0.10466523 0.01799086 0.00000000
v 0.11324107 0.01768230 0.00000000
v 0.11995455 0.01783206 0.00000000
v 0.13226606 0.01903016 0.00000000
v 0.13786408 0.02007850 0.00000000
v 0.14315741 0.02144185 0.00000000
v 0.15290746 0.02516009 0.00000000
v 0.15736418 0.02751498 0.00000000
v 0.15736418 0.07928114 0.07000000
v 0.11476968 0.07928114 0.07000000
v 0.11476968 0.10072299 0.07000000
v 0.18318529 0.10072299 0.07000000
v 0.18318529 0.01793018 0.07000000
v 0.17544929 0.01290539 0.07000000
v 0.15879983 0.00480789 0.07000000
v 0.14988639 0.00173518 0.07000000
v 0.14064243 -0.00066877 0.07000000
v 0.12122495 -0.00341613 0.07000000
v 0.11105144 -0.00375955 0.07000000
v 0.10005939 -0.00334706 0.07000000
v 0.07991892 -0.00004712 0.07000000
v 0.06223662 0.00655275 0.07000000
v 0.04701250 0.01645257 0.07000000
v 0.04032225 0.02263995 0.07000000
v 0.03434789 0.02957292 0.07000000
v 0.02478891 0.04537544 0.07000000
v 0.01841626 0.06376007 0.07000000
v 0.01522994 0.08472681 0.07000000
v 0.01483165 0.09617848 0.07000000
v 0.01522994 0.10766822 0.07000000
v 0.01841626 0.12869177 0.07000000
v 0.02478891 0.14710739 0.07000000
v 0.03434789 0.16291507 0.07000000
v 0.04032225 0.16984094 0.07000000
v 0.04701250 0.17602833 0.07000000
v 0.06223662 0.18592814 0.07000000
v 0.07991892 0.19252802 0.07000000
v 0.10005939 0.19582795 0.07000000
v 0.11105144 0.19624045 0.07000000
v 0.12035478 0.19594867 0.07000000
v 0.13826430 0.19361444 0.07000000
v 0.14687048 0.19157199 0.07000000
v 0.15519521 0.18898213 0.07000000
v 0.17085313 0.18214470 0.07000000
v 0.17818633 0.17789713 0.07000000
v 0.17818633 0.15013427 0.07000000
v 0.17084280 0.15588980 0.07000000
v 0.15547408 0.16512342 0.07000000
v 0.14744887 0.16860153 0.07000000
v 0.13920678 0.17131275 0.07000000
v 0.12210287 0.17441128 0.07000000
v 0.11324107 0.17479860 0.07000000
v 0.10466523 0.17449003 0.07000000
v 0.08916740 0.17202153 0.07000000
v 0.07587469 0.16708454 0.07000000
v 0.06478710 0.15967904 0.07000000
v 0.06007023 0.15505061 0.07000000
v 0.05591626 0.14981086 0.07000000
v 0.04926991 0.13751485 0.07000000
v 0.04483901 0.12279681 0.07000000
v 0.04262355 0.10565676 0.07000000
v 0.04234662 0.09617848 0.07000000
v 0.04262355 0.08672924 0.07000000
v 0.04483901 0.06963566 0.07000000
v 0.04926991 0.05494862 0.07000000
v 0.05591626 0.04266810 0.07000000
v 0.06007023 0.03743028 0.07000000
v 0.06478710 0.03280185 0.07000000
v 0.07587469 0.02539635 0.07000000
v 0.08916740 0.02045936 0.07000000
v 0.10466523 0.01799086 0.07000000
v 0.11324107 0.01768230 0.07000000
v 0.11995455 0.01783206 0.07000000
v 0.13226606 0.01903016 0.07000000
v 0.13786408 0.02007850 0.07000000
v 0.14315741 0.02144185 0.07000000
v 0.15290746 0.02516009 0.07000000
v 0.15736418 0.02751498 0.07000000
vn -0.30151134 -0.30151134 -0.90453403
vn -0.57735027 -0.57735027 -0.57735027
vn -0.57735027 0.57735027 -0.57735027
vn 0.57735027 0.57735027 -0.57735027
vn 0.69378144 -0.37665306 -0.61384020
vn 0.35445203 -0.62724358 -0.69349062
vn 0.27535136 -0.66547021 -0.69378025
vn 0.20682463 -0.68508580 -0.69848480
vn 0.14116563 -0.70548762 -0.69452105
vn 0.06255822 -0.71600454 -0.69528697
vn -0.00134600 -0.71494735 -0.69917700
vn -0.07191075 -0.71702661 -0.69332653
vn -0.18695915 -0.70331135 -0.68585671
vn -0.32865696 -0.65200427 -0.68328255
vn -0.44548939 -0.57227118 -0.68850919
vn -0.51754124 -0.49968569 -0.69459720
vn -0.58680121 -0.42572880 -0.68878104
vn -0.66016918 -0.30986173 -0.68422391
vn -0.70532766 -0.17428288 -0.68712325
vn -0.71660503 -0.06668622 -0.69428393
vn -0.71475102 -0.00004115 -0.69937899
vn -0.71659242 0.06649838 -0.69431497
vn -0.70539633 0.17395479 -0.68713590
vn -0.66030577 0.30965778 -0.68418445
vn -0.58677748 0.42587376 -0.68871164
vn -0.51737641 0.49977992 -0.69465220
vn -0.44548939 0.57227118 -0.68850919
vn -0.32865696 0.65200427 -0.68328255
vn -0.18695915 0.70331135 -0.68585671
vn -0.07191075 0.71702661 -0.69332653
vn -0.00219994 0.71468775 -0.69944019
vn 0.05770725 0.71550575 -0.69621935
vn 0.12953479 0.70659861 -0.69565735
vn 0.18877156 0.68928110 -0.69946899
vn 0.25106725 0.67382400 -0.69492910
vn 0.32476008 0.64193788 -0.69458379
vn 0.68645396 0.39568158 -0.61009593
vn 0.36547410 -0.75079179 -0.55021847
vn -0.39273587 -0.57052205 -0.72129268
vn -0.31629583 -0.61505539 -0.72226298
vn -0.24757867 -0.65106594 -0.71750815
vn -0.16991178 -0.66959767 -0.72302763
vn -0.07687202 -0.68690415 -0.72267100
vn -0.00269171 -0.69791220 -0.71617827
vn 0.06707233 -0.68958949 -0.72108781
vn 0.17357520 -0.66103280 -0.73000499
vn 0.30880510 -0.60456837 -0.73425915
vn 0.43186317 -0.53143483 -0.72874634
vn 0.51485968 -0.46316608 -0.72138526
vn 0.57298429 -0.37780788 -0.72728963
vn 0.63043998 -0.26208528 -0.73065500
vn 0.67251559 -0.14368100 -0.72600175
vn 0.69341196 -0.05480736 -0.71845390
vn 0.70040056 0.00003143 -0.71374999
vn 0.69336947 0.05495589 -0.71848356
vn 0.67242005 0.14398683 -0.72602967
vn 0.63030089 0.26243776 -0.73064848
vn 0.57288696 0.37803457 -0.72724851
vn 0.51483427 0.46322704 -0.72136425
vn 0.43186317 0.53143483 -0.72874634
vn 0.30880510 0.60456837 -0.73425915
vn 0.17357520 0.66103280 -0.73000499
vn 0.06707233 0.68958949 -0.72108781
vn 0.00478421 0.70041213 -0.71372261
vn -0.04164571 0.69725780 -0.71560966
vn -0.09798606 0.68999009 -0.71715578
vn -0.15167913 0.68276666 -0.71471891
vn -0.21053193 0.66131941 -0.71995343
vn -0.28582105 0.63117003 -0.72106221
vn -0.45999337 0.27720388 -0.84354259
vn -0.30151134 -0.30151134 0.90453403
vn -0.57735027 -0.57735027 0.57735027
vn -0.57735027 0.57735027 0.57735027
vn 0.57735027 0.57735027 0.57735027
vn 0.69378144 -0.37665306 0.61384020
vn 0.35445203 -0.62724358 0.69349062
vn 0.27535136 -0.66547021 0.69378025
vn 0.20682463 -0.68508580 0.69848480
vn 0.14116563 -0.70548762 0.69452105
vn 0.06255822 -0.71600454 0.69528697
vn -0.00134600 -0.71494735 0.69917700
vn -0.07191075 -0.71702661 0.69332653
vn -0.18695915 -0.70331135 0.68585671
vn -0.32865696 -0.65200427 0.68328255
vn -0.44548939 -0.57227118 0.68850919
vn -0.51754124 -0.49968569 0.69459720
vn -0.58680121 -0.42572880 0.68878104
vn -0.66016918 -0.30986173 0.68422391
vn -0.70532766 -0.17428288 0.68712325
vn -0.71660503 -0.06668622 0.69428393
vn -0.71475102 -0.00004115 0.69937899
vn -0.71659242 0.06649838 0.69431497
vn -0.70539633 0.17395479 0.68713590
vn -0.66030577 0.30965778 0.68418445
vn -0.58677748 0.42587376 0.68871164
vn -0.51737641 0.49977992 0.69465220
vn -0.44548939 0.57227118 0.68850919
vn -0.32865696 0.65200427 0.68328255
vn -0.18695915 0.70331135 0.68585671
vn -0.07191075 0.71702661 0.69332653
vn -0.00219994 0.71468775 0.69944019
vn 0.05770725 0.71550575 0.69621935
vn 0.12953479 0.70659861 0.69565735
vn 0.18877156 0.68928110 0.69946899
vn 0.25106725 0.67382400 0.69492910
vn 0.32476008 0.64193788 0.69458379
vn 0.68645396 0.39568158 0.61009593
vn 0.36547410 -0.75079179 0.55021847
vn -0.39273587 -0.57052205 0.72129268
vn -0.31629583 -0.61505539 0.72226298
vn -0.24757867 -0.65106594 0.71750815
vn -0.16991178 -0.66959767 0.72302763
vn -0.07687202 -0.68690415 0.72267100
vn -0.00269171 -0.69791220 0.71617827
vn 0.06707233 -0.68958949 0.72108781
vn 0.17357520 -0.66103280 0.73000499
vn 0.30880510 -0.60456837 0.73425915
vn 0.43186317 -0.53143483 0.72874634
vn 0.51485968 -0.46316608 0.72138526
vn 0.57298429 -0.37780788 0.72728963
vn 0.63043998 -0.26208528 0.73065500
vn 0.67251559 -0.14368100 0.72600175
vn 0.69341196 -0.05480736 0.71845390
vn 0.70040056 0.00003143 0.71374999
vn 0.69336947 0.05495589 0.71848356
vn 0.67242005 0.14398683 0.72602967
vn 0.63030089 0.26243776 0.73064848
vn 0.57288696 0.37803457 0.72724851
vn 0.51483427 0.46322704 0.72136425
vn 0.43186317 0.53143483 0.72874634
vn 0.30880510 0.60456837 0.73425915
vn 0.17357520 0.66103280 0.73000499
vn 0.06707233 0.68958949 0.72108781
vn 0.00478421 0.70041213 0.71372261
vn -0.04164571 0.69725780 0.71560966
vn -0.09798606 0.68999009 0.71715578
vn -0.15167913 0.68276666 0.71471891
vn -0.21053193 0.66131941 0.71995343
vn -0.28582105 0.63117003 0.72106221
vn -0.45999337 0.27720388 0.84354259
f 37//37 38//38 39//39
f 35//35 36//36 37//37
f 33//33 34//34 35//35
f 31//31 32//32 33//33
f 29//29 30//30 31//31
f 27//27 28//28 29//29
f 25//25 26//26 27//27
f 23//23 24//24 25//25
f 21//21 22//22 23//23
f 19//19 20//20 21//21
f 17//17 18//18 19//19
f 15//15 16//16 17//17
f 13//13 14//14 15//15
f 11//11 12//12 13//13
f 9//9 10//10 11//11
f 7//7 8//8 9//9
f 5//5 6//6 7//7
f 2//2 3//3 4//4
f 37//37 39//39 40//40
f 33//33 35//35 37//37
f 29//29 31//31 33//33
f 25//25 27//27 29//29
f 21//21 23//23 25//25
f 17//17 19//19 21//21
f 13//13 15//15 17//17
f 9//9 11//11 13//13
f 5//5 7//7 9//9
f 1//1 2//2 4//4
f 37//37 40//40 41//41
f 29//29 33//33 37//37
f 21//21 25//25 29//29
f 13//13 17//17 21//21
f 5//5 9//9 13//13
f 1//1 4//4 5//5
f 37//37 41//41 42//42
f 70//70 1//1 5//5
f 37//37 42//42 43//43
f 69//69 70//70 5//5
f 37//37 43//43 44//44
f 68//68 69//69 5//5
f 37//37 44//44 45//45
f 68//68 5//5 13//13
f 29//29 37//37 45//45
f 67//67 68//68 13//13
f 29//29 45//45 46//46
f 66//66 67//67 13//13
f 29//29 46//46 47//47
f 65//65 66//66 13//13
f 29//29 47//47 48//48
f 64//64 65//65 13//13
f 29//29 48//48 49//49
f 63//63 64//64 13//13
f 29//29 49//49 50//50
f 62//62 63//63 13//13
f 21//21 29//29 50//50
f 61//61 62//62 13//13
f 21//21 50//50 51//51
f 60//60 61//61 13//13
f 21//21 51//51 52//52
f 59//59 60//60 13//13
f 21//21 52//52 53//53
f 58//58 59//59 13//13
f 21//21 53//53 54//54
f 58//58 13//13 21//21
f 21//21 54//54 55//55
f 57//57 58//58 21//21
f 21//21 55//55 56//56
f 56//56 57//57 21//21
f 109//109 108//108 107//107
f 107//107 106//106 105//105
f 105//105 104//104 103//103
f 103//103 102//102 101//101
f 101//101 100//100 99//99
f 99//99 98//98 97//97
f 97//97 96//96 95//95
f 95//95 94//94 93//93
f 93//93 92//92 91//91
f 91//91 90//90 89//89
f 89//89 88//88 87//87
f 87//87 86//86 85//85
f 85//85 84//84 83//83
f 83//83 82//82 81//81
f 81//81 80//80 79//79
f 79//79 78//78 77//77
f 77//77 76//76 75//75
f 74//74 73//73 72//72
f 110//110 109//109 107//107
f 107//107 105//105 103//103
f 103//103 101//101 99//99
f 99//99 97//97 95//95
f 95//95 93//93 91//91
f 91//91 89//89 87//87
f 87//87 85//85 83//83
f 83//83 81//81 79//79
f 79//79 77//77 75//75
f 74//74 72//72 71//71
f 111//111 110//110 107//107
f 107//107 103//103 99//99
f 99//99 95//95 91//91
f 91//91 87//87 83//83
f 83//83 79//79 75//75
f 75//75 74//74 71//71
f 112//112 111//111 107//107
f 75//75 71//71 140//140
f 113//113 112//112 107//107
f 75//75 140//140 139//139
f 114//114 113//113 107//107
f 75//75 139//139 138//138
f 115//115 114//114 107//107
f 83//83 75//75 138//138
f 115//115 107//107 99//99
f 83//83 138//138 137//137
f 116//116 115//115 99//99
f 83//83 137//137 136//136
f 117//117 116//116 99//99
f 83//83 136//136 135//135
f 118//118 117//117 99//99
f 83//83 135//135 134//134
f 119//119 118//118 99//99
f 83//83 134//134 133//133
f 120//120 119//119 99//99
f 83//83 133//133 132//132
f 120//120 99//99 91//91
f 83//83 132//132 131//131
f 121//121 120//120 91//91
f 83//83 131//131 130//130
f 122//122 121//121 91//91
f 83//83 130//130 129//129
f 123//123 122//122 91//91
f 83//83 129//129 128//128
f 124//124 123//123 91//91
f 91//91 83//83 128//128
f 125//125 124//124 91//91
f 91//91 128//128 127//127
f 126//126 125//125 91//91
f 91//91 127//127 126//126
f 71//71 72//72 1//1
f 1//1 72//72 2//2
f 72//72 73//73 2//2
f 2//2 73//73 3//3
f 73//73 74//74 3//3
f 3//3 74//74 4//4
f 74//74 75//75 4//4
f 4//4 75//75 5//5
f 75//75 76//76 5//5
f 5//5 76//76 6//6
f 76//76 77//77 6//6
f 6//6 77//77 7//7
f 77//77 78//78 7//7
f 7//7 78//78 8//8
f 78//78 79//79 8//8
f 8//8 79//79 9//9
f 79//79 80//80 9//9
f 9//9 80//80 10//10
f 80//80 81//81 10//10
f 10//10 81//81 11//11
f 81//81 82//82 11//11
f 11//11 82//82 12//12
f 82//82 83//83 12//12
f 12//12 83//83 13//13
f 83//83 84//84 13//13
f 13//13 84//84 14//14
f 84//84 85//85 14//14
f 14//14 85//85 15//15
f 85//85 86//86 15//15
f 15//15 86//86 16//16
f 86//86 87//87 16//16
f 16//16 87//87 17//17
f 87//87 88//88 17//17
f 17//17 88//88 18//18
f 88//88 89//89 18//18
f 18//18 89//89 19//19
f 89//89 90//90 19//19
f 19//19 90//90 20//20
f 90//90 91//91 20//20
f 20//20 91//91 21//21
f 91//91 92//92 21//21
f 21//21 92//92 22//22
f 92//92 93//93 22//22
f 22//22 93//93 23//23
f 93//93 94//94 23//23
f 23//23 94//94 24//24
f 94//94 95//95 24//24
f 24//24 95//95 25//25
f 95//95 96//96 25//25
f 25//25 96//96 26//26
f 96//96 97//97 26//26
f 26//26 97//97 27//27
f 97//97 98//98 27//27
f 27//27 98//98 28//28
f 98//98 99//99 28//28
f 28//28 99//99 29//29
f 99//99 100//100 29//29
f 29//29 100//100 30//30
f 100//100 101//101 30//30
f 30//30 101//101 31//31
f 101//101 102//102 31//31
f 31//31 102//102 32//32
f 102//102 103//103 32//32
f 32//32 103//103 33//33
f 103//103 104//104 33//33
f 33//33 104//104 34//34
f 104//104 105//105 34//34
f 34//34 105//105 35//35
f 105//105 106//106 35//35
f 35//35 106//106 36//36
f 106//106 107//107 36//36
f 36//36 107//107 37//37
f 107//107 108//108 37//37
f 37//37 108//108 38//38
f 108//108 109//109 38//38
f 38//38 109//109 39//39
f 109//109 110//110 39//39
f 39//39 110//110 40//40
f 110//110 111//111 40//40
f 40//40 111//111 41//41
f 111//111 112//112 41//41
f 41//41 112//112 42//42
f 112//112 113//113 42//42
f 42//42 113//113 43//43
f 113//113 114//114 43//43
f 43//43 114//114 44//44
f 114//114 115//115 44//44
f 44//44 115//115 45//45
f 115//115 116//116 45//45
f 45//45 116//116 46//46
f 116//116 117//117 46//46
f 46//46 117//117 47//47
f 117//117 118//118 47//47
f 47//47 118//118 48//48
f 118//118 119//119 48//48
f 48//48 119//119 49//49
f 119//119 120//120 49//49
f 49//49 120//120 50//50
f 120//120 121//121 50//50
f 50//50 121//121 51//51
f 121//121 122//122 51//51
f 51//51 122//122 52//52
f 122//122 123//123 52//52
f 52//52 123//123 53//53
f 123//123 124//124 53//53
f 53//53 124//124 54//54
f 124//124 125//125 54//54
f 54//54 125//125 55//55
f 125//125 126//126 55//55
f 55//55 126//126 56//56
f 126//126 127//127 56//56
f 56//56 127//127 57//57
f 127//127 128//128 57//57
f 57//57 128//128 58//58
f 128//128 129//129 58//58
f 58//58 129//129 59//59
f 129//129 130//130 59//59
f 59//59 130//130 60//60
f 130//130 131//131 60//60
f 60//60 131//131 61//61
f 131//131 132//132 61//61
f 61//61 132//132 62//62
f 132//132 133//133 62//62
f 62//62 133//133 63//63
f 133//133 134//134 63//63
f 63//63 134//134 64//64
f 134//134 135//135 64//64
f 64//64 135//135 65//65
f 135//135 136//136 65//65
f 65//65 136//136 66//66
f 136//136 137//137 66//66
f 66//66 137//137 67//67
f 137//137 138//138 67//67
f 67//67 138//138 68//68
f 138//138 139//139 68//68
f 68//68 139//139 69//69
f 140//140 71//71 70//70
f 70//70 71//71 1//1
f 139//139 140//140 69//69
f 69//69 140//140 70//70

