# https://github.com/mikedh/trimesh
v 0.09605658 0.20000000 0.00000000
v 0.10357105 0.19979908 0.00000000
v 0.11726586 0.19819171 0.00000000
v 0.12918185 0.19497696 0.00000000
v 0.13931901 0.19015484 0.00000000
v 0.14372053 0.18714102 0.00000000
v 0.14764855 0.18375683 0.00000000
v 0.15393337 0.17597179 0.00000000
v 0.15812326 0.16683120 0.00000000
v 0.16021820 0.15633506 0.00000000
v 0.16048007 0.15057865 0.00000000
v 0.15994428 0.14185598 0.00000000
v 0.15713138 0.13054008 0.00000000
v 0.15391663 0.12417488 0.00000000
v 0.15190742 0.12134591 0.00000000
v 0.14963834 0.11876273 0.00000000
v 0.14434473 0.11436388 0.00000000
v 0.13451565 0.10968442 0.00000000
v 0.12670381 0.10784398 0.00000000
v 0.13155808 0.10662639 0.00000000
v 0.14043078 0.10331521 0.00000000
v 0.14818903 0.09883599 0.00000000
v 0.15483283 0.09318876 0.00000000
v 0.15773682 0.08992713 0.00000000
v 0.16032871 0.08642440 0.00000000
v 0.16447573 0.07878402 0.00000000
v 0.16724041 0.07029710 0.00000000
v 0.16862275 0.06096362 0.00000000
v 0.16879554 0.05597943 0.00000000
v 0.16851090 0.04947225 0.00000000
v 0.16623379 0.03759912 0.00000000
v 0.16167957 0.02724764 0.00000000
v 0.15484824 0.01841781 0.00000000
v 0.15057865 0.01457351 0.00000000
v 0.14578333 0.01115784 0.00000000
v 0.13474604 0.00569278 0.00000000
v 0.12177990 0.00204940 0.00000000
v 0.10688491 0.00022771 0.00000000
v 0.09871410 0.00000000 0.00000000
v 0.02691813 0.00000000 0.00000000
v 0.02691813 0.20000000 0.00000000
v 0.05396485 0.02224604 0.00000000
v 0.09738534 0.02224604 0.00000000
v 0.10758680 0.02281129 0.00000000
v 0.12023682 0.02577891 0.00000000
v 0.12690206 0.02917046 0.00000000
v 0.12970424 0.03129018 0.00000000
v 0.13217558 0.03370057 0.00000000
v 0.13612971 0.03941746 0.00000000
v 0.13876581 0.04632916 0.00000000
v 0.14008385 0.05443568 0.00000000
v 0.14024861 0.05893699 0.00000000
v 0.14008385 0.06347581 0.00000000
v 0.13876581 0.07162519 0.00000000
v 0.13612971 0.07853689 0.00000000
v 0.13217558 0.08421091 0.00000000
v 0.12970424 0.08658380 0.00000000
v 0.12690206 0.08867338 0.00000000
v 0.12023682 0.09201672 0.00000000
v 0.10758680 0.09494213 0.00000000
v 0.09738534 0.09549936 0.00000000
v 0.05396485 0.09549936 0.00000000
v 0.05396485 0.11748821 0.00000000
v 0.09404201 0.11748821 0.00000000
v 0.10331119 0.11795167 0.00000000
v 0.11805615 0.12165934 0.00000000
v 0.12353193 0.12490356 0.00000000
v 0.12581239 0.12689000 0.00000000
v 0.12946113 0.13159425 0.00000000
v 0.13189362 0.13727363 0.00000000
v 0.13310986 0.14392815 0.00000000
v 0.13326189 0.14762109 0.00000000
v 0.13265377 0.15470960 0.00000000
v 0.12946113 0.16355417 0.00000000
v 0.12581239 0.16825841 0.00000000
v 0.12353193 0.17025289 0.00000000
v 0.12095210 0.17201096 0.00000000
v 0.11484408 0.17482386 0.00000000
v 0.10331119 0.17728515 0.00000000
v 0.09404201 0.17775396 0.00000000
v 0.05396485 0.17775396 0.00000000
v 0.09605658 0.20000000 0.07000000
v 0.10357105 0.19979908 0.07000000
v 0.11726586 0.19819171 0.07000000
v 0.12918185 0.19497696 0.07000000
v 0.13931901 0.19015484 0.07000000
v 0.14372053 0.18714102 0.07000000
v 0.14764855 0.18375683 0.07000000
v 0.15393337 0.17597179 0.07000000
v 0.15812326 0.16683120 0.07000000
v 0.16021820 0.15633506 0.07000000
v 0.16048007 0.15057865 0.07000000
v 0.15994428 0.14185598 0.07000000
v 0.15713138 0.13054008 0.07000000
v 0.15391663 0.12417488 0.07000000
v 0.15190742 0.12134591 0.07000000
v 0.14963834 0.11876273 0.07000000
v 0.14434473 0.11436388 0.07000000
v 0.13451565 0.10968442 0.07000000
v 0.12670381 0.10784398 0.07000000
v 0.13155808 0.10662639 0.07000000
v 0.14043078 0.10331521 0.07000000
v 0.14818903 0.09883599 0.07000000
v 0.15483283 0.09318876 0.07000000
v 0.15773682 0.08992713 0.07000000
v 0.16032871 0.08642440 0.07000000
v 0.16447573 0.07878402 0.07000000
v 0.16724041 0.07029710 0.07000000
v 0.16862275 0.06096362 0.07000000
v 0.16879554 0.05597943 0.07000000
v 0.16851090 0.04947225 0.07000000
v 0.16623379 0.03759912 0.07000000
v 0.16167957 0.02724764 0.07000000
v 0.15484824 0.01841781 0.07000000
v 0.15057865 0.01457351 0.07000000
v 0.14578333 0.01115784 0.07000000
v 0.13474604 0.00569278 0.07000000
v 0.12177990 0.00204940 0.07000000
v 0.10688491 0.00022771 0.07000000
v 0.09871410 0.00000000 0.07000000
v 0.02691813 0.00000000 0.07000000
v 0.02691813 0.20000000 0.07000000
v 0.05396485 0.02224604 0.07000000
v 0.09738534 0.02224604 0.07000000
v 0.10758680 0.02281129 0.07000000
v 0.12023682 0.02577891 0.07000000
v 0.12690206 0.02917046 0.07000000
v 0.12970424 0.03129018 0.07000000
v 0.13217558 0.03370057 0.07000000
v 0.13612971 0.03941746 0.07000000
v 0.13876581 0.04632916 0.07000000
v 0.14008385 0.05443568 0.07000000
v 0.14024861 0.05893699 0.07000000
v 0.14008385 0.06347581 0.07000000
v 0.13876581 0.07162519 0.07000000
v 0.13612971 0.07853689 0.07000000
v 0.13217558 0.08421091 0.07000000
v 0.12970424 0.08658380 0.07000000
v 0.12690206 0.08867338 0.07000000
v 0.12023682 0.09201672 0.07000000
v 0.10758680 0.09494213 0.07000000
v 0.09738534 0.09549936 0.07000000
v 0.05396485 0.09549936 0.07000000
v 0.05396485 0.11748821 0.07000000
v 0.09404201 0.11748821 0.07000000
v 0.10331119 0.11795167 0.07000000
v 0.11805615 0.12165934 0.07000000
v 0.12353193 0.12490356 0.07000000
v 0.12581239 0.12689000 0.07000000
v 0.12946113 0.13159425 0.07000000
v 0.13189362 0.13727363 0.07000000
v 0.13310986 0.14392815 0.07000000
v 0.13326189 0.14762109 0.07000000
v 0.13265377 0.15470960 0.07000000
v 0.12946113 0.16355417 0.07000000
v 0.12581239 0.16825841 0.07000000
v 0.12353193 0.17025289 0.07000000
v 0.12095210 0.17201096 0.07000000
v 0.11484408 0.17482386 0.07000000
v 0.10331119 0.17728515 0.07000000
v 0.09404201 0.17775396 0.07000000
v 0.05396485 0.17775396 0.07000000
vn 0.00949064 0.71002664 -0.70411085
vn 0.05142241 0.71511868 -0.69710903
vn 0.13664416 0.70984065 -0.69098092
vn 0.25161170 0.68132971 -0.68737280
vn 0.36105851 0.62739091 -0.68994014
vn 0.43852035 0.56997607 -0.69485767
vn 0.52172061 0.50529276 -0.68737678
vn 0.62323082 0.38596522 -0.68015748
vn 0.69583688 0.22550927 -0.68187726
vn 0.71806231 0.08748079 -0.69045900
vn 0.71870907 -0.00570946 -0.69528747
vn 0.71805414 -0.11035617 -0.68718249
vn 0.68488977 -0.25440688 -0.68279071
vn 0.61932019 -0.37344665 -0.69063745
vn 0.56343591 -0.44561051 -0.69568042
vn 0.50480974 -0.51884035 -0.68990711
vn 0.39484953 -0.61759939 -0.68019471
vn 0.24181227 -0.68828673 -0.68395044
vn 0.12682946 -0.00091194 -0.99192412
vn 0.21355254 0.68678079 -0.69478591
vn 0.30901242 0.65572065 -0.68886990
vn 0.41850442 0.59365884 -0.68733051
vn 0.50468332 0.51640768 -0.69182212
vn 0.55650141 0.45209732 -0.69707545
vn 0.60909259 0.38797587 -0.69172316
vn 0.66740550 0.28698502 -0.68717501
vn 0.70577871 0.16598080 -0.68871387
vn 0.71635096 0.06525687 -0.69468183
vn 0.71570528 -0.00324224 -0.69839490
vn 0.71787264 -0.08408555 -0.69107778
vn 0.69764180 -0.21731969 -0.68269178
vn 0.62963851 -0.37441237 -0.68071340
vn 0.53226992 -0.49399498 -0.68750105
vn 0.45016204 -0.56127614 -0.69449495
vn 0.37190246 -0.62135425 -0.68964299
vn 0.26069504 -0.67847829 -0.68680806
vn 0.14217469 -0.70933380 -0.69038534
vn 0.05359410 -0.71535659 -0.69670124
vn 0.00989356 -0.71014617 -0.70398475
vn -0.57735027 -0.57735027 -0.57735027
vn -0.57735027 0.57735027 -0.57735027
vn 0.30151134 0.30151134 -0.90453403
vn -0.01939236 0.70050008 -0.71338880
vn -0.09773106 0.67929963 -0.72732431
vn -0.23282686 0.63672175 -0.73510344
vn -0.36393679 0.58157641 -0.72754305
vn -0.45149677 0.52500124 -0.72147374
vn -0.52254062 0.44146610 -0.72942374
vn -0.59979897 0.31588123 -0.73516001
vn -0.65930249 0.17734780 -0.73066270
vn -0.68914407 0.06836754 -0.72139194
vn -0.69871688 0.00010552 -0.71539828
vn -0.68924703 -0.06798267 -0.72132994
vn -0.65927365 -0.17704553 -0.73076203
vn -0.59883413 -0.31672277 -0.73558438
vn -0.51960819 -0.44407214 -0.72993648
vn -0.44769790 -0.52839758 -0.72136163
vn -0.36032736 -0.58398366 -0.72741135
vn -0.23009738 -0.63807342 -0.73479079
vn -0.09643137 -0.67978635 -0.72704299
vn -0.01911976 -0.70059908 -0.71329893
vn 0.30151134 -0.30151134 -0.90453403
vn 0.30151134 0.30151134 -0.90453403
vn -0.01751848 0.70117703 -0.71277197
vn -0.10090739 0.67611533 -0.72985324
vn -0.25569803 0.62098684 -0.74094120
vn -0.40146490 0.55558646 -0.72811374
vn -0.49711033 0.46960017 -0.72962799
vn -0.58252763 0.34302300 -0.73688316
vn -0.65115234 0.19624207 -0.73313687
vn -0.68644308 0.07648157 -0.72315037
vn -0.69209703 -0.01537941 -0.72164061
vn -0.65956475 -0.14472251 -0.73758371
vn -0.58543515 -0.32215365 -0.74396419
vn -0.49776431 -0.46927675 -0.72939017
vn -0.42402807 -0.54817480 -0.72090539
vn -0.33847070 -0.59824075 -0.72632334
vn -0.21462737 -0.64567630 -0.73282823
vn -0.08948681 -0.68236679 -0.72551201
vn -0.01771893 -0.70110501 -0.71283785
vn 0.30151134 -0.30151134 -0.90453403
vn 0.00949064 0.71002664 0.70411085
vn 0.05142241 0.71511868 0.69710903
vn 0.13664416 0.70984065 0.69098092
vn 0.25161170 0.68132971 0.68737280
vn 0.36105851 0.62739091 0.68994014
vn 0.43852035 0.56997607 0.69485767
vn 0.52172061 0.50529276 0.68737678
vn 0.62323082 0.38596522 0.68015748
vn 0.69583688 0.22550927 0.68187726
vn 0.71806231 0.08748079 0.69045900
vn 0.71870907 -0.00570946 0.69528747
vn 0.71805414 -0.11035617 0.68718249
vn 0.68488977 -0.25440688 0.68279071
vn 0.61932019 -0.37344665 0.69063745
vn 0.56343591 -0.44561051 0.69568042
vn 0.50480974 -0.51884035 0.68990711
vn 0.39484953 -0.61759939 0.68019471
vn 0.24181227 -0.68828673 0.68395044
vn 0.12682946 -0.00091194 0.99192412
vn 0.21355254 0.68678079 0.69478591
vn 0.30901242 0.65572065 0.68886990
vn 0.41850442 0.59365884 0.68733051
vn 0.50468332 0.51640768 0.69182212
vn 0.55650141 0.45209732 0.69707545
vn 0.60909259 0.38797587 0.69172316
vn 0.66740550 0.28698502 0.68717501
vn 0.70577871 0.16598080 0.68871387
vn 0.71635096 0.06525687 0.69468183
vn 0.71570528 -0.00324224 0.69839490
vn 0.71787264 -0.08408555 0.69107778
vn 0.69764180 -0.21731969 0.68269178
vn 0.62963851 -0.37441237 0.68071340
vn 0.53226992 -0.49399498 0.68750105
vn 0.45016204 -0.56127614 0.69449495
vn 0.37190246 -0.62135425 0.68964299
vn 0.26069504 -0.67847829 0.68680806
vn 0.14217469 -0.70933380 0.69038534
vn 0.05359410 -0.71535659 0.69670124
vn 0.00989356 -0.71014617 0.70398475
vn -0.57735027 -0.57735027 0.57735027
vn -0.57735027 0.57735027 0.57735027
vn 0.30151134 0.30151134 0.90453403
vn -0.01939236 0.70050008 0.71338880
vn -0.09773106 0.67929963 0.72732431
vn -0.23282686 0.63672175 0.73510344
vn -0.36393679 0.58157641 0.72754305
vn -0.45149677 0.52500124 0.72147374
vn -0.52254062 0.44146610 0.72942374
vn -0.59979897 0.31588123 0.73516001
vn -0.65930249 0.17734780 0.73066270
vn -0.68914407 0.06836754 0.72139194
vn -0.69871688 0.00010552 0.71539828
vn -0.68924703 -0.06798267 0.72132994
vn -0.65927365 -0.17704553 0.73076203
vn -0.59883413 -0.31672277 0.73558438
vn -0.51960819 -0.44407214 0.72993648
vn -0.44769790 -0.52839758 0.72136163
vn -0.36032736 -0.58398366 0.72741135
vn -0.23009738 -0.63807342 0.73479079
vn -0.09643137 -0.67978635 0.72704299
vn -0.01911976 -0.70059908 0.71329893
vn 0.30151134 -0.30151134 0.90453403
vn 0.30151134 0.30151134 0.90453403
vn -0.01751848 0.70117703 0.71277197
vn -0.10090739 0.67611533 0.72985324
vn -0.25569803 0.62098684 0.74094120
vn -0.40146490 0.55558646 0.72811374
vn -0.49711033 0.46960017 0.72962799
vn -0.58252763 0.34302300 0.73688316
vn -0.65115234 0.19624207 0.73313687
vn -0.68644308 0.07648157 0.72315037
vn -0.69209703 -0.01537941 0.72164061
vn -0.65956475 -0.14472251 0.73758371
vn -0.58543515 -0.32215365 0.74396419
vn -0.49776431 -0.46927675 0.72939017
vn -0.42402807 -0.54817480 0.72090539
vn -0.33847070 -0.59824075 0.72632334
vn -0.21462737 -0.64567630 0.73282823
vn -0.08948681 -0.68236679 0.72551201
vn -0.01771893 -0.70110501 0.71283785
vn 0.30151134 -0.30151134 0.90453403
f 81//81 63//63 40//40
f 62//62 42//42 40//40
f 40//40 42//42 43//43
f 38//38 39//39 40//40
f 36//36 37//37 38//38
f 34//34 35//35 36//36
f 32//32 33//33 34//34
f 30//30 31//31 32//32
f 28//28 29//29 30//30
f 26//26 27//27 28//28
f 24//24 25//25 26//26
f 22//22 23//23 24//24
f 20//20 21//21 22//22
f 17//17 18//18 19//19
f 15//15 16//16 17//17
f 13//13 14//14 15//15
f 11//11 12//12 13//13
f 9//9 10//10 11//11
f 7//7 8//8 9//9
f 5//5 6//6 7//7
f 3//3 4//4 5//5
f 1//1 2//2 3//3
f 81//81 40//40 41//41
f 62//62 40//40 63//63
f 40//40 43//43 44//44
f 36//36 38//38 40//40
f 32//32 34//34 36//36
f 28//28 30//30 32//32
f 24//24 26//26 28//28
f 20//20 22//22 24//24
f 15//15 17//17 19//19
f 11//11 13//13 15//15
f 7//7 9//9 11//11
f 3//3 5//5 7//7
f 41//41 1//1 3//3
f 80//80 81//81 41//41
f 62//62 63//63 64//64
f 40//40 44//44 45//45
f 32//32 36//36 40//40
f 24//24 28//28 32//32
f 19//19 20//20 24//24
f 11//11 15//15 19//19
f 3//3 7//7 11//11
f 80//80 41//41 3//3
f 62//62 64//64 65//65
f 32//32 40//40 45//45
f 19//19 24//24 32//32
f 79//79 80//80 3//3
f 62//62 65//65 66//66
f 32//32 45//45 46//46
f 78//78 79//79 3//3
f 61//61 62//62 66//66
f 32//32 46//46 47//47
f 77//77 78//78 3//3
f 61//61 66//66 67//67
f 32//32 47//47 48//48
f 77//77 3//3 11//11
f 61//61 67//67 68//68
f 32//32 48//48 49//49
f 76//76 77//77 11//11
f 60//60 61//61 68//68
f 32//32 49//49 50//50
f 75//75 76//76 11//11
f 60//60 68//68 69//69
f 32//32 50//50 51//51
f 74//74 75//75 11//11
f 59//59 60//60 69//69
f 32//32 51//51 52//52
f 73//73 74//74 11//11
f 59//59 69//69 70//70
f 32//32 52//52 53//53
f 72//72 73//73 11//11
f 32//32 53//53 54//54
f 71//71 72//72 11//11
f 32//32 54//54 55//55
f 71//71 11//11 19//19
f 19//19 32//32 55//55
f 70//70 71//71 19//19
f 19//19 55//55 56//56
f 59//59 70//70 19//19
f 19//19 56//56 57//57
f 58//58 59//59 19//19
f 19//19 57//57 58//58
f 121//121 144//144 162//162
f 121//121 123//123 143//143
f 124//124 123//123 121//121
f 121//121 120//120 119//119
f 119//119 118//118 117//117
f 117//117 116//116 115//115
f 115//115 114//114 113//113
f 113//113 112//112 111//111
f 111//111 110//110 109//109
f 109//109 108//108 107//107
f 107//107 106//106 105//105
f 105//105 104//104 103//103
f 103//103 102//102 101//101
f 100//100 99//99 98//98
f 98//98 97//97 96//96
f 96//96 95//95 94//94
f 94//94 93//93 92//92
f 92//92 91//91 90//90
f 90//90 89//89 88//88
f 88//88 87//87 86//86
f 86//86 85//85 84//84
f 84//84 83//83 82//82
f 122//122 121//121 162//162
f 144//144 121//121 143//143
f 125//125 124//124 121//121
f 121//121 119//119 117//117
f 117//117 115//115 113//113
f 113//113 111//111 109//109
f 109//109 107//107 105//105
f 105//105 103//103 101//101
f 100//100 98//98 96//96
f 96//96 94//94 92//92
f 92//92 90//90 88//88
f 88//88 86//86 84//84
f 84//84 82//82 122//122
f 122//122 162//162 161//161
f 145//145 144//144 143//143
f 126//126 125//125 121//121
f 121//121 117//117 113//113
f 113//113 109//109 105//105
f 105//105 101//101 100//100
f 100//100 96//96 92//92
f 92//92 88//88 84//84
f 84//84 122//122 161//161
f 146//146 145//145 143//143
f 126//126 121//121 113//113
f 113//113 105//105 100//100
f 84//84 161//161 160//160
f 147//147 146//146 143//143
f 127//127 126//126 113//113
f 84//84 160//160 159//159
f 147//147 143//143 142//142
f 128//128 127//127 113//113
f 84//84 159//159 158//158
f 148//148 147//147 142//142
f 129//129 128//128 113//113
f 92//92 84//84 158//158
f 149//149 148//148 142//142
f 130//130 129//129 113//113
f 92//92 158//158 157//157
f 149//149 142//142 141//141
f 131//131 130//130 113//113
f 92//92 157//157 156//156
f 150//150 149//149 141//141
f 132//132 131//131 113//113
f 92//92 156//156 155//155
f 150//150 141//141 140//140
f 133//133 132//132 113//113
f 92//92 155//155 154//154
f 151//151 150//150 140//140
f 134//134 133//133 113//113
f 92//92 154//154 153//153
f 135//135 134//134 113//113
f 92//92 153//153 152//152
f 136//136 135//135 113//113
f 100//100 92//92 152//152
f 136//136 113//113 100//100
f 100//100 152//152 151//151
f 137//137 136//136 100//100
f 100//100 151//151 140//140
f 138//138 137//137 100//100
f 100//100 140//140 139//139
f 139//139 138//138 100//100
f 82//82 83//83 1//1
f 1//1 83//83 2//2
f 83//83 84//84 2//2
f 2//2 84//84 3//3
f 84//84 85//85 3//3
f 3//3 85//85 4//4
f 85//85 86//86 4//4
f 4//4 86//86 5//5
f 86//86 87//87 5//5
f 5//5 87//87 6//6
f 87//87 88//88 6//6
f 6//6 88//88 7//7
f 88//88 89//89 7//7
f 7//7 89//89 8//8
f 89//89 90//90 8//8
f 8//8 90//90 9//9
f 90//90 91//91 9//9
f 9//9 91//91 10//10
f 91//91 92//92 10//10
f 10//10 92//92 11//11
f 92//92 93//93 11//11
f 11//11 93//93 12//12
f 93//93 94//94 12//12
f 12//12 94//94 13//13
f 94//94 95//95 13//13
f 13//13 95//95 14//14
f 95//95 96//96 14//14
f 14//14 96//96 15//15
f 96//96 97//97 15//15
f 15//15 97//97 16//16
f 97//97 98//98 16//16
f 16//16 98//98 17//17
f 98//98 99//99 17//17
f 17//17 99//99 18//18
f 99//99 100//100 18//18
f 18//18 100//100 19//19
f 100//100 101//101 19//19
f 19//19 101//101 20//20
f 101//101 102//102 20//20
f 20//20 102//102 21//21
f 102//102 103//103 21//21
f 21//21 103//103 22//22
f 103//103 104//104 22//22
f 22//22 104//104 23//23
f 104//104 105//105 23//23
f 23//23 105//105 24//24
f 105//105 106//106 24//24
f 24//24 106//106 25//25
f 106//106 107//107 25//25
f 25//25 107//107 26//26
f 107//107 108//108 26//26
f 26//26 108//108 27//27
f 108//108 109//109 27//27
f 27//27 109//109 28//28
f 109//109 110//110 28//28
f 28//28 110//110 29//29
f 110//110 111//111 29//29
f 29//29 111//111 30//30
f 111//111 112//112 30//30
f 30//30 112//112 31//31
f 112//112 113//113 31//31
f 31//31 113//113 32//32
f 113//113 114//114 32//32
f 32//32 114//114 33//33
f 114//114 115//115 33//33
f 33//33 115//115 34//34
f 115//115 116//116 34//34
f 34//34 116//116 35//35
f 116//116 117//117 35//35
f 35//35 117//117 36//36
f 117//117 118//118 36//36
f 36//36 118//118 37//37
f 118//118 119//119 37//37
f 37//37 119//119 38//38
f 119//119 120//120 38//38
f 38//38 120//120 39//39
f 120//120 121//121 39//39
f 39//39 121//121 40//40
f 122//122 82//82 41//41
f 41//41 82//82 1//1
f 121//121 122//122 40//40
f 40//40 122//122 41//41
f 123//123 124//124 42//42
f 42//42 124//124 43//43
f 124//124 125//125 43//43
f 43//43 125//125 44//44
f 125//125 126//126 44//44
f 44//44 126//126 45//45
f 126//126 127//127 45//45
f 45//45 127//127 46//46
f 127//127 128//128 46//46
f 46//46 128//128 47//47
f 128//128 129//129 47//47
f 47//47 129//129 48//48
f 129//129 130//130 48//48
f 48//48 130//130 49//49
f 130//130 131//131 49//49
f 49//49 131//131 50//50
f 131//131 132//132 50//50
f 50//50 132//132 51//51
f 132//132 133//133 51//51
f 51//51 133//133 52//52
f 133//133 134//134 52//52
f 52//52 134//134 53//53
f 134//134 135//135 53//53
f 53//53 135//135 54//54
f 135//135 136//136 54//54
f 54//54 136//136 55//55
f 136//136 137//137 55//55
f 55//55 137//137 56//56
f 137//137 138//138 56//56
f 56//56 138//138 57//57
f 138//138 139//139 57//57
f 57//57 139//139 58//58
f 139//139 140//140 58//58
f 58//58 140//140 59//59
f 140//140 141//141 59//59
f 59//59 141//141 60//60
f 141//141 142//142 60//60
f 60//60 142//142 61//61
f 143//143 123//123 62//62
f 62//62 123//123 42//42
f 142//142 143//143 61//61
f 61//61 143//143 62//62
f 144//144 145//145 63//63
f 63//63 145//145 64//64
f 145//145 146//146 64//64
f 64//64 146//146 65//65
f 146//146 147//147 65//65
f 65//65 147//147 66//66
f 147//147 148//148 66//66
f 66//66 148//148 67//67
f 148//148 149//149 67//67
f 67//67 149//149 68//68
f 149//149 150//150 68//68
f 68//68 150//150 69//69
f 150//150 151//151 69//69
f 69//69 151//151 70//70
f 151//151 152//152 70//70
f 70//70 152//152 71//71
f 152//152 153//153 71//71
f 71//71 153//153 72//72
f 153//153 154//154 72//72
f 72//72 154//154 73//73
f 154//154 155//155 73//73
f 73//73 155//155 74//74
f 155//155 156//156 74//74
f 74//74 156//156 75//75
f 156//156 157//157 75//75
f 75//75 157//157 76//76
f 157//157 158//158 76//76
f 76//76 158//158 77//77
f 158//158 159//159 77//77
f 77//77 159//159 78//78
f 159//159 160//160 78//78
f 78//78 160//160 79//79
f 160//160 161//161 79//79
f 79//79 161//161 80//80
f 162//162 144//144 81//81
f 81//81 144//144 63//63
f 161//161 162//162 80//80
f 80//80 162//162 81//81

