# https://github.com/mikedh/trimesh
v 0.01955753 0.10264987 -0.00000000
v 0.01903172 0.10612322 -0.00000000
v 0.05405928 0.10264987 -0.00000000
v 0.01955753 0.10264987 0.07000000
v 0.01854376 0.12022449 -0.00000000
v 0.01903172 0.10612322 0.07000000
v 0.06151320 0.17115132 -0.00000000
v 0.05405928 0.10264987 0.07000000
v 0.01903172 0.13436598 -0.00000000
v 0.01854376 0.12022449 0.07000000
v 0.02667914 0.17115132 -0.00000000
v 0.06151320 0.17115132 0.06993833
v 0.06150899 0.17115132 0.07000000
v 0.02296480 0.16032895 -0.00000000
v 0.01903172 0.13436598 0.07000000
v 0.02667914 0.17115132 0.07000000
v 0.02296480 0.16032895 0.07000000
f 1 2 5
f 1 5 9
f 1 9 14
f 1 14 11
f 1 11 7
f 1 7 3
f 1 3 8
f 1 8 4
f 1 4 6
f 1 6 2
f 2 6 10
f 2 10 5
f 3 7 12
f 3 12 8
f 4 8 13
f 4 13 16
f 4 16 17
f 4 17 15
f 4 15 10
f 4 10 6
f 5 10 15
f 5 15 9
f 7 11 16
f 7 16 13
f 7 13 12
f 8 12 13
f 9 15 17
f 9 17 14
f 11 14 17
f 11 17 16

