# https://github.com/mikedh/trimesh
v 0.03375443 0.05242780 -0.00000000
v 0.04262007 0.03752069 -0.00000000
v 0.03375443 0.05242780 0.07000000
v 0.07097227 0.05242780 -0.00000000
v 0.04999075 0.02876370 -0.00000000
v 0.04262007 0.03752069 0.07000000
v 0.07097227 0.05242780 0.07000000
v 0.10972226 0.02570992 -0.00000000
v 0.05823163 0.02092177 -0.00000000
v 0.04999075 0.02876370 0.07000000
v 0.10972226 0.02570992 0.07000000
v 0.10972226 -0.00192303 -0.00000000
v 0.05823163 0.02092177 0.07000000
v 0.07687774 0.00837682 -0.00000000
v 0.10972226 -0.00192303 0.07000000
v 0.09843939 0.00000819 -0.00000000
v 0.07687774 0.00837682 0.07000000
v 0.09843939 0.00000819 0.07000000
f 1 2 6
f 1 6 3
f 1 3 7
f 1 7 4
f 1 4 8
f 1 8 12
f 1 12 16
f 1 16 14
f 1 14 9
f 1 9 5
f 1 5 2
f 2 5 10
f 2 10 6
f 3 6 10
f 3 10 13
f 3 13 17
f 3 17 18
f 3 18 15
f 3 15 11
f 3 11 7
f 4 7 11
f 4 11 8
f 5 9 13
f 5 13 10
f 8 11 15
f 8 15 12
f 9 14 17
f 9 17 13
f 12 15 18
f 12 18 16
f 14 16 18
f 14 18 17

