# https://github.com/mikedh/trimesh
v 0.08347917 0.20114754 -0.00000000
v 0.08347917 0.23476829 -0.00000000
v 0.10987291 0.21495324 -0.00000000
v 0.10987291 0.21494514 0.00004111
v 0.08347917 0.20114754 0.07000000
v 0.09844208 0.24058719 -0.00000000
v 0.08347917 0.23476829 0.07000000
v 0.10987291 0.24254438 -0.00000000
v 0.10987291 0.21495324 0.07000000
v 0.09844208 0.24058719 0.07000000
v 0.10987291 0.24254438 0.07000000
f 1 2 6
f 1 6 8
f 1 8 3
f 1 3 4
f 1 4 5
f 1 5 7
f 1 7 2
f 2 7 10
f 2 10 6
f 3 8 11
f 3 11 9
f 3 9 4
f 4 9 5
f 5 9 11
f 5 11 10
f 5 10 7
f 6 10 11
f 6 11 8

