# https://github.com/mikedh/trimesh
v 0.02667846 0.17115132 -0.00000000
v 0.03082601 0.18322626 -0.00000000
v 0.06151012 0.17115132 -0.00000000
v 0.02667846 0.17115132 0.07000000
v 0.04262374 0.20302941 -0.00000000
v 0.03082601 0.18322626 0.07000000
v 0.08347659 0.20114873 -0.00000000
v 0.06151012 0.17115132 0.06993833
v 0.06150457 0.17115132 0.07000000
v 0.04999038 0.21177892 -0.00000000
v 0.04262374 0.20302941 0.07000000
v 0.08347659 0.23477049 -0.00000000
v 0.08347659 0.20114873 0.07000000
v 0.05822433 0.21963790 -0.00000000
v 0.04999038 0.21177892 0.07000000
v 0.07688276 0.23220480 -0.00000000
v 0.08347659 0.23477049 0.07000000
v 0.05822433 0.21963790 0.07000000
v 0.07688276 0.23220480 0.07000000
f 1 2 5
f 1 5 10
f 1 10 14
f 1 14 16
f 1 16 12
f 1 12 7
f 1 7 3
f 1 3 8
f 1 8 9
f 1 9 4
f 1 4 6
f 1 6 2
f 2 6 11
f 2 11 5
f 3 7 13
f 3 13 8
f 4 9 13
f 4 13 17
f 4 17 19
f 4 19 18
f 4 18 15
f 4 15 11
f 4 11 6
f 5 11 15
f 5 15 10
f 7 12 17
f 7 17 13
f 8 13 9
f 10 15 18
f 10 18 14
f 12 16 19
f 12 19 17
f 14 18 19
f 14 19 16

