# https://github.com/mikedh/trimesh
v 0.21286924 0.22236749 0.07000000
v 0.20432762 0.22774374 0.07000000
v 0.21286924 0.18802933 0.07000000
v 0.21286924 0.22236749 -0.00000000
v 0.18635619 0.23634354 0.07000000
v 0.20432762 0.22774374 -0.00000000
v 0.14851731 0.21801211 0.07000000
v 0.21286924 0.18802933 -0.00000000
v 0.17692639 0.23956708 0.07000000
v 0.18635619 0.23634354 -0.00000000
v 0.14851731 0.24471031 0.07000000
v 0.14851731 0.21801211 -0.00000000
v 0.16721943 0.24207489 0.07000000
v 0.17692639 0.23956708 -0.00000000
v 0.14851731 0.24471031 -0.00000000
v 0.16721943 0.24207489 -0.00000000
f 1 2 5
f 1 5 9
f 1 9 13
f 1 13 11
f 1 11 7
f 1 7 3
f 1 3 8
f 1 8 4
f 1 4 6
f 1 6 2
f 2 6 10
f 2 10 5
f 3 7 12
f 3 12 8
f 4 8 12
f 4 12 15
f 4 15 16
f 4 16 14
f 4 14 10
f 4 10 6
f 5 10 14
f 5 14 9
f 7 11 15
f 7 15 12
f 9 14 16
f 9 16 13
f 11 13 16
f 11 16 15

