# https://github.com/mikedh/trimesh
v 0.14851353 0.24470924 0.07000000
v 0.14686804 0.24494101 0.07000000
v 0.14851353 0.21801932 0.07000000
v 0.14851353 0.24470924 -0.00000000
v 0.13623100 0.24530056 0.07000000
v 0.14686804 0.24494101 -0.00000000
v 0.10988426 0.21494977 0.07000000
v 0.10987669 0.21494383 0.00004111
v 0.14851353 0.21801932 -0.00000000
v 0.12291199 0.24477461 0.07000000
v 0.13623100 0.24530056 -0.00000000
v 0.10987669 0.21495274 0.07000000
v 0.10987669 0.21495274 -0.00000000
v 0.10988426 0.21494977 -0.00000000
v 0.10987669 0.24254302 0.07000000
v 0.12291199 0.24477461 -0.00000000
v 0.10987669 0.24254302 -0.00000000
f 1 2 5
f 1 5 10
f 1 10 15
f 1 15 12
f 1 12 7
f 1 7 3
f 1 3 9
f 1 9 4
f 1 4 6
f 1 6 2
f 2 6 11
f 2 11 5
f 3 7 8
f 3 8 9
f 4 9 14
f 4 14 13
f 4 13 17
f 4 17 16
f 4 16 11
f 4 11 6
f 5 11 16
f 5 16 10
f 7 12 8
f 8 13 14
f 8 14 9
f 8 12 15
f 8 15 17
f 8 17 13
f 10 16 17
f 10 17 15

