# https://github.com/mikedh/trimesh
v 0.16824696 0.02636558 0.07000000
v 0.10972970 0.02571180 0.07000000
v 0.16824696 -0.00109911 0.07000000
v 0.16824696 0.02636558 -0.00000000
v 0.10972970 -0.00192014 0.07000000
v 0.10972970 0.02571180 -0.00000000
v 0.16692379 -0.00144576 0.07000000
v 0.16824696 -0.00109911 -0.00000000
v 0.12291556 -0.00417642 0.07000000
v 0.10972970 -0.00192014 -0.00000000
v 0.14673259 -0.00433759 0.07000000
v 0.16692379 -0.00144576 -0.00000000
v 0.13623316 -0.00469640 0.07000000
v 0.12291556 -0.00417642 -0.00000000
v 0.14673259 -0.00433759 -0.00000000
v 0.13623316 -0.00469640 -0.00000000
f 1 2 5
f 1 5 9
f 1 9 13
f 1 13 11
f 1 11 7
f 1 7 3
f 1 3 8
f 1 8 4
f 1 4 6
f 1 6 2
f 2 6 10
f 2 10 5
f 3 7 12
f 3 12 8
f 4 8 12
f 4 12 15
f 4 15 16
f 4 16 14
f 4 14 10
f 4 10 6
f 5 10 14
f 5 14 9
f 7 11 15
f 7 15 12
f 9 14 16
f 9 16 13
f 11 13 16
f 11 16 15

