# https://github.com/mikedh/trimesh
v 0.04047015 0.13314832 0.07000000
v 0.02018860 0.13314832 0.07000000
v 0.04057794 0.08811382 0.07000000
v 0.04047015 0.13314832 -0.00000000
v 0.02018860 0.13314832 -0.00000000
v 0.02018860 0.00001303 0.07000000
v 0.04057794 0.07162506 0.07000000
v 0.04057794 0.08811382 -0.00000000
v 0.02018860 0.00001303 -0.00000000
v 0.04054400 0.00001303 0.07000000
v 0.04057794 0.07162506 -0.00000000
v 0.04054400 0.00001303 -0.00000000
f 1 2 6
f 1 6 10
f 1 10 7
f 1 7 3
f 1 3 8
f 1 8 4
f 1 4 5
f 1 5 2
f 2 5 9
f 2 9 6
f 3 7 11
f 3 11 8
f 4 8 11
f 4 11 12
f 4 12 9
f 4 9 5
f 6 9 12
f 6 12 10
f 7 10 12
f 7 12 11

