# https://github.com/mikedh/trimesh
v 0.11904091 0.06644760 0.07000000
v 0.11830219 0.06744553 0.07000000
v 0.09525701 0.06644760 0.07000000
v 0.11904091 0.06644760 -0.00000000
v 0.11612230 0.06989230 0.07000000
v 0.11830219 0.06744553 -0.00000000
v 0.07274661 0.07162524 0.07000000
v 0.09525701 0.06644760 -0.00000000
v 0.11114165 0.07412572 0.07000000
v 0.11612230 0.06989230 -0.00000000
v 0.07274661 0.08088790 0.07000000
v 0.07274661 0.07162524 -0.00000000
v 0.10532257 0.07748561 0.07000000
v 0.11114165 0.07412572 -0.00000000
v 0.09505307 0.08088790 0.07000000
v 0.07274661 0.08088790 -0.00000000
v 0.09866507 0.07996913 0.07000000
v 0.10532257 0.07748561 -0.00000000
v 0.09505307 0.08088790 -0.00000000
v 0.09866507 0.07996913 -0.00000000
f 1 2 5
f 1 5 9
f 1 9 13
f 1 13 17
f 1 17 15
f 1 15 11
f 1 11 7
f 1 7 3
f 1 3 8
f 1 8 4
f 1 4 6
f 1 6 2
f 2 6 10
f 2 10 5
f 3 7 12
f 3 12 8
f 4 8 12
f 4 12 16
f 4 16 19
f 4 19 20
f 4 20 18
f 4 18 14
f 4 14 10
f 4 10 6
f 5 10 14
f 5 14 9
f 7 11 16
f 7 16 12
f 9 14 18
f 9 18 13
f 11 15 19
f 11 19 16
f 13 18 20
f 13 20 17
f 15 17 20
f 15 20 19

