# https://github.com/mikedh/trimesh
v 0.04055238 0.00000000 -0.00000000
v 0.04055238 0.01668434 -0.00000000
v 0.07404171 0.00000000 -0.00000000
v 0.04055238 0.00000000 0.07000000
v 0.04055238 0.01668434 0.07000000
v 0.08399217 0.01788346 -0.00000000
v 0.08016151 0.00017155 -0.00000000
v 0.07404171 0.00000000 0.07000000
v 0.08399217 0.01788346 0.07000000
v 0.11927737 0.01788346 -0.00000000
v 0.08016151 0.00017155 0.07000000
v 0.09132977 0.00153872 -0.00000000
v 0.11927737 0.01788346 0.07000000
v 0.11613268 0.01381171 -0.00000000
v 0.09132977 0.00153872 0.07000000
v 0.10105670 0.00427130 -0.00000000
v 0.11613268 0.01381171 0.07000000
v 0.11292634 0.01092858 -0.00000000
v 0.10105670 0.00427130 0.07000000
v 0.10933462 0.00836931 -0.00000000
v 0.11292634 0.01092858 0.07000000
v 0.10933462 0.00836931 0.07000000
f 1 2 6
f 1 6 10
f 1 10 14
f 1 14 18
f 1 18 20
f 1 20 16
f 1 16 12
f 1 12 7
f 1 7 3
f 1 3 8
f 1 8 4
f 1 4 5
f 1 5 2
f 2 5 9
f 2 9 6
f 3 7 11
f 3 11 8
f 4 8 11
f 4 11 15
f 4 15 19
f 4 19 22
f 4 22 21
f 4 21 17
f 4 17 13
f 4 13 9
f 4 9 5
f 6 9 13
f 6 13 10
f 7 12 15
f 7 15 11
f 10 13 17
f 10 17 14
f 12 16 19
f 12 19 15
f 14 17 21
f 14 21 18
f 16 20 22
f 16 22 19
f 18 21 22
f 18 22 20

