# https://github.com/mikedh/trimesh
v 0.11058007 0.14354477 0.07000000
v 0.11015178 0.14367840 0.07000000
v 0.11058007 0.12645534 0.07000000
v 0.11058007 0.14354477 -0.00000000
v 0.10369702 0.14520898 0.07000000
v 0.11015178 0.14367840 -0.00000000
v 0.08469011 0.13109162 0.07000000
v 0.11058007 0.12645534 -0.00000000
v 0.09026800 0.14696023 0.07000000
v 0.10369702 0.14520898 -0.00000000
v 0.08469011 0.14713637 0.07000000
v 0.08469011 0.13109162 -0.00000000
v 0.09026800 0.14696023 -0.00000000
v 0.08469011 0.14713637 -0.00000000
f 1 2 5
f 1 5 9
f 1 9 11
f 1 11 7
f 1 7 3
f 1 3 8
f 1 8 4
f 1 4 6
f 1 6 2
f 2 6 10
f 2 10 5
f 3 7 12
f 3 12 8
f 4 8 12
f 4 12 14
f 4 14 13
f 4 13 10
f 4 10 6
f 5 10 13
f 5 13 9
f 7 11 14
f 7 14 12
f 9 13 14
f 9 14 11

