# https://github.com/mikedh/trimesh
v 0.04138803 0.11133934 0.07000000
v 0.01920610 0.11133934 0.07000000
v 0.03236453 0.08232393 0.07000000
v 0.04138803 0.11133934 -0.00000000
v 0.01859212 0.11032813 0.07000000
v 0.01920610 0.11133934 -0.00000000
v 0.01166373 0.08232393 0.07000000
v 0.03236453 0.08232393 -0.00000000
v 0.01381412 0.09652060 0.07000000
v 0.01859212 0.11032813 -0.00000000
v 0.01166373 0.08232393 -0.00000000
v 0.01381412 0.09652060 -0.00000000
f 1 2 5
f 1 5 9
f 1 9 7
f 1 7 3
f 1 3 8
f 1 8 4
f 1 4 6
f 1 6 2
f 2 6 10
f 2 10 5
f 3 7 11
f 3 11 8
f 4 8 11
f 4 11 12
f 4 12 10
f 4 10 6
f 5 10 12
f 5 12 9
f 7 9 12
f 7 12 11

