# https://github.com/mikedh/trimesh
v 0.13363974 0.11260373 -0.00000000
v 0.11058006 0.12645584 -0.00000000
v 0.13363974 0.13342280 -0.00000000
v 0.13363974 0.11260373 0.07000000
v 0.11058006 0.14354608 -0.00000000
v 0.11058006 0.12645584 0.07000000
v 0.12813891 0.13660639 -0.00000000
v 0.13363974 0.13342280 0.07000000
v 0.11639690 0.14173468 -0.00000000
v 0.11058006 0.14354608 0.07000000
v 0.12813891 0.13660639 0.07000000
v 0.11639690 0.14173468 0.07000000
f 1 2 5
f 1 5 9
f 1 9 7
f 1 7 3
f 1 3 8
f 1 8 4
f 1 4 6
f 1 6 2
f 2 6 10
f 2 10 5
f 3 7 11
f 3 11 8
f 4 8 11
f 4 11 12
f 4 12 10
f 4 10 6
f 5 10 12
f 5 12 9
f 7 9 12
f 7 12 11

