# https://github.com/mikedh/trimesh
v 0.13738897 0.02065436 0.07000000
v 0.11802385 0.02065436 0.07000000
v 0.13738897 0.01344548 0.07000000
v 0.13738897 0.02065436 -0.00000000
v 0.09921555 0.01427403 0.07000000
v 0.11802385 0.02065436 -0.00000000
v 0.13158541 0.00967813 0.07000000
v 0.13738897 0.01344548 -0.00000000
v 0.09921555 -0.00138872 0.07000000
v 0.09921555 0.01427403 -0.00000000
v 0.11909637 0.00360636 0.07000000
v 0.13158541 0.00967813 -0.00000000
v 0.10548249 -0.00049974 0.07000000
v 0.09921555 -0.00138872 -0.00000000
v 0.11241835 0.00130194 0.07000000
v 0.11909637 0.00360636 -0.00000000
v 0.10548249 -0.00049974 -0.00000000
v 0.11241835 0.00130194 -0.00000000
f 1 2 5
f 1 5 9
f 1 9 13
f 1 13 15
f 1 15 11
f 1 11 7
f 1 7 3
f 1 3 8
f 1 8 4
f 1 4 6
f 1 6 2
f 2 6 10
f 2 10 5
f 3 7 12
f 3 12 8
f 4 8 12
f 4 12 16
f 4 16 18
f 4 18 17
f 4 17 14
f 4 14 10
f 4 10 6
f 5 10 14
f 5 14 9
f 7 11 16
f 7 16 12
f 9 14 17
f 9 17 13
f 11 15 18
f 11 18 16
f 13 17 18
f 13 18 15

