# https://github.com/mikedh/trimesh
v 0.04035148 0.12000000 0.00000000
v 0.07095585 0.03834548 0.00000000
v 0.10174025 0.12000000 0.00000000
v 0.12594085 0.12000000 0.00000000
v 0.12594085 0.00000000 0.00000000
v 0.11009859 0.00000000 0.00000000
v 0.11009859 0.10536648 0.00000000
v 0.07915988 0.02306901 0.00000000
v 0.06285469 0.02306901 0.00000000
v 0.03191599 0.10536648 0.00000000
v 0.03191599 0.00000000 0.00000000
v 0.01615088 0.00000000 0.00000000
v 0.01615088 0.12000000 0.00000000
v 0.04035148 0.12000000 0.05000000
v 0.07095585 0.03834548 0.05000000
v 0.10174025 0.12000000 0.05000000
v 0.12594085 0.12000000 0.05000000
v 0.12594085 0.00000000 0.05000000
v 0.11009859 0.00000000 0.05000000
v 0.11009859 0.10536648 0.05000000
v 0.07915988 0.02306901 0.05000000
v 0.06285469 0.02306901 0.05000000
v 0.03191599 0.10536648 0.05000000
v 0.03191599 0.00000000 0.05000000
v 0.01615088 0.00000000 0.05000000
v 0.01615088 0.12000000 0.05000000
vn 0.45633476 0.65836991 -0.59858804
vn 0.00018821 0.19486303 -0.98083045
vn -0.45564444 0.65873200 -0.59871554
vn 0.57735027 0.57735027 -0.57735027
vn 0.57735027 -0.57735027 -0.57735027
vn -0.57735027 -0.57735027 -0.57735027
vn -0.01688481 -0.09289672 -0.99553257
vn 0.45597950 -0.65855638 -0.59865364
vn -0.45597950 -0.65855638 -0.59865364
vn 0.01688481 -0.09289672 -0.99553257
vn 0.57735027 -0.57735027 -0.57735027
vn -0.57735027 -0.57735027 -0.57735027
vn -0.57735027 0.57735027 -0.57735027
vn 0.45633476 0.65836991 0.59858804
vn 0.00018821 0.19486303 0.98083045
vn -0.45564444 0.65873200 0.59871554
vn 0.57735027 0.57735027 0.57735027
vn 0.57735027 -0.57735027 0.57735027
vn -0.57735027 -0.57735027 0.57735027
vn -0.01688481 -0.09289672 0.99553257
vn 0.45597950 -0.65855638 0.59865364
vn -0.45597950 -0.65855638 0.59865364
vn 0.01688481 -0.09289672 0.99553257
vn 0.57735027 -0.57735027 0.57735027
vn -0.57735027 -0.57735027 0.57735027
vn -0.57735027 0.57735027 0.57735027
f 11//11 12//12 13//13
f 8//8 9//9 10//10
f 5//5 6//6 7//7
f 10//10 11//11 13//13
f 4//4 5//5 7//7
f 10//10 13//13 1//1
f 3//3 4//4 7//7
f 10//10 1//1 2//2
f 3//3 7//7 8//8
f 8//8 10//10 2//2
f 2//2 3//3 8//8
f 26//26 25//25 24//24
f 23//23 22//22 21//21
f 20//20 19//19 18//18
f 26//26 24//24 23//23
f 20//20 18//18 17//17
f 14//14 26//26 23//23
f 20//20 17//17 16//16
f 15//15 14//14 23//23
f 21//21 20//20 16//16
f 15//15 23//23 21//21
f 21//21 16//16 15//15
f 14//14 15//15 1//1
f 1//1 15//15 2//2
f 15//15 16//16 2//2
f 2//2 16//16 3//3
f 16//16 17//17 3//3
f 3//3 17//17 4//4
f 17//17 18//18 4//4
f 4//4 18//18 5//5
f 18//18 19//19 5//5
f 5//5 19//19 6//6
f 19//19 20//20 6//6
f 6//6 20//20 7//7
f 20//20 21//21 7//7
f 7//7 21//21 8//8
f 21//21 22//22 8//8
f 8//8 22//22 9//9
f 22//22 23//23 9//9
f 9//9 23//23 10//10
f 23//23 24//24 10//10
f 10//10 24//24 11//11
f 24//24 25//25 11//11
f 11//11 25//25 12//12
f 26//26 14//14 13//13
f 13//13 14//14 1//1
f 25//25 26//26 12//12
f 12//12 26//26 13//13

