# https://github.com/mikedh/trimesh
v 0.11704493 0.10514543 0.07000000
v 0.09563746 0.10514543 0.07000000
v 0.11684638 0.09980265 0.07000000
v 0.11704493 0.10514543 -0.00000000
v 0.09260898 0.09065980 0.07000000
v 0.09563746 0.10514543 -0.00000000
v 0.11532975 0.09065980 0.07000000
v 0.11684638 0.09980265 -0.00000000
v 0.09260898 0.09065980 -0.00000000
v 0.11532975 0.09065980 -0.00000000
f 1 2 5
f 1 5 7
f 1 7 3
f 1 3 8
f 1 8 4
f 1 4 6
f 1 6 2
f 2 6 9
f 2 9 5
f 3 7 10
f 3 10 8
f 4 8 10
f 4 10 9
f 4 9 6
f 5 9 10
f 5 10 7

