# https://github.com/mikedh/trimesh
v 0.04047179 0.07869530 0.07000000
v 0.02018860 0.07869530 0.07000000
v 0.04332829 0.07695439 0.07000000
v 0.04047179 0.07869530 -0.00000000
v 0.02018860 0.07869530 -0.00000000
v 0.02018860 0.00000000 0.07000000
v 0.04332829 0.07695439 -0.00000000
v 0.04332829 0.06026938 0.07000000
v 0.02018860 0.00000000 -0.00000000
v 0.04047179 0.00000000 0.07000000
v 0.04332829 0.06026938 -0.00000000
v 0.04047179 0.00000000 -0.00000000
f 1 2 6
f 1 6 10
f 1 10 8
f 1 8 3
f 1 3 7
f 1 7 4
f 1 4 5
f 1 5 2
f 2 5 9
f 2 9 6
f 3 8 11
f 3 11 7
f 4 7 11
f 4 11 12
f 4 12 9
f 4 9 5
f 6 9 12
f 6 12 10
f 8 10 12
f 8 12 11

