# https://github.com/mikedh/trimesh
v 0.11533190 0.09065980 0.07000000
v 0.09260926 0.09065980 0.07000000
v 0.11522836 0.09005355 0.07000000
v 0.11533190 0.09065980 -0.00000000
v 0.08120953 0.07983215 0.07000000
v 0.09260926 0.09065980 -0.00000000
v 0.11199849 0.08166361 0.07000000
v 0.11522836 0.09005355 -0.00000000
v 0.11073594 0.07983215 0.07000000
v 0.08120953 0.07983215 -0.00000000
v 0.11199849 0.08166361 -0.00000000
v 0.11073594 0.07983215 -0.00000000
f 1 2 5
f 1 5 9
f 1 9 7
f 1 7 3
f 1 3 8
f 1 8 4
f 1 4 6
f 1 6 2
f 2 6 10
f 2 10 5
f 3 7 11
f 3 11 8
f 4 8 11
f 4 11 12
f 4 12 10
f 4 10 6
f 5 10 12
f 5 12 9
f 7 9 12
f 7 12 11

