# https://github.com/mikedh/trimesh
v 0.11073861 0.07983215 0.07000000
v 0.08120469 0.07983215 0.07000000
v 0.10714914 0.07463121 0.07000000
v 0.11073861 0.07983215 -0.00000000
v 0.04333055 0.07696082 0.07000000
v 0.08120469 0.07983215 -0.00000000
v 0.10412053 0.07162397 0.07000000
v 0.10714914 0.07463121 -0.00000000
v 0.04333055 0.06027647 0.07000000
v 0.04333055 0.07696082 -0.00000000
v 0.10070922 0.06896512 0.07000000
v 0.10412053 0.07162397 -0.00000000
v 0.06600225 0.06027647 0.07000000
v 0.04333055 0.06027647 -0.00000000
v 0.09271870 0.06470981 0.07000000
v 0.10070922 0.06896512 -0.00000000
v 0.07211886 0.06045449 0.07000000
v 0.06600225 0.06027647 -0.00000000
v 0.08318418 0.06187293 0.07000000
v 0.09271870 0.06470981 -0.00000000
v 0.07211886 0.06045449 -0.00000000
v 0.08318418 0.06187293 -0.00000000
f 1 2 5
f 1 5 9
f 1 9 13
f 1 13 17
f 1 17 19
f 1 19 15
f 1 15 11
f 1 11 7
f 1 7 3
f 1 3 8
f 1 8 4
f 1 4 6
f 1 6 2
f 2 6 10
f 2 10 5
f 3 7 12
f 3 12 8
f 4 8 12
f 4 12 16
f 4 16 20
f 4 20 22
f 4 22 21
f 4 21 18
f 4 18 14
f 4 14 10
f 4 10 6
f 5 10 14
f 5 14 9
f 7 11 16
f 7 16 12
f 9 14 18
f 9 18 13
f 11 15 20
f 11 20 16
f 13 18 21
f 13 21 17
f 15 19 22
f 15 22 20
f 17 21 22
f 17 22 19

